<svg width="16" height="16" viewBox="0 0 16 16" fill="none" xmlns="http://www.w3.org/2000/svg">
<path d="M1.9974 11.3349H13.9974C14.1863 11.3349 14.3447 11.3989 14.4727 11.5269C14.6007 11.6549 14.6645 11.8131 14.6641 12.0016C14.6636 12.19 14.5996 12.3485 14.4721 12.4769C14.3445 12.6053 14.1863 12.6691 13.9974 12.6682H1.9974C1.80851 12.6682 1.65029 12.6042 1.52273 12.4762C1.39518 12.3482 1.33118 12.19 1.33073 12.0016C1.33029 11.8131 1.39429 11.6549 1.52273 11.5269C1.65118 11.3989 1.8094 11.3349 1.9974 11.3349ZM2.66407 7.6349L2.3474 8.20156C2.28073 8.32378 2.18073 8.40156 2.0474 8.4349C1.91407 8.46823 1.78629 8.45156 1.66407 8.3849C1.54184 8.31823 1.46407 8.21823 1.43073 8.0849C1.3974 7.95156 1.41407 7.82378 1.48073 7.70156L1.7974 7.1349H1.16407C1.01962 7.1349 0.900288 7.08778 0.806066 6.99356C0.711843 6.89934 0.66451 6.77978 0.664066 6.6349C0.663621 6.49001 0.710955 6.37067 0.806066 6.2769C0.901177 6.18312 1.02051 6.13578 1.16407 6.1349H1.7974L1.48073 5.60156C1.41407 5.47934 1.3974 5.35156 1.43073 5.21823C1.46407 5.0849 1.54184 4.9849 1.66407 4.91823C1.78629 4.85156 1.91407 4.8349 2.0474 4.86823C2.18073 4.90156 2.28073 4.97934 2.3474 5.10156L2.66407 5.6349L2.98073 5.10156C3.0474 4.97934 3.1474 4.90156 3.28073 4.86823C3.41407 4.8349 3.54184 4.85156 3.66407 4.91823C3.78629 4.9849 3.86407 5.0849 3.8974 5.21823C3.93073 5.35156 3.91407 5.47934 3.8474 5.60156L3.53073 6.1349H4.16407C4.30851 6.1349 4.42807 6.18223 4.52273 6.2769C4.6174 6.37156 4.66451 6.4909 4.66407 6.6349C4.66362 6.7789 4.61629 6.89845 4.52207 6.99356C4.42784 7.08867 4.30851 7.13578 4.16407 7.1349H3.53073L3.8474 7.70156C3.91407 7.82378 3.93073 7.95156 3.8974 8.0849C3.86407 8.21823 3.78629 8.31823 3.66407 8.3849C3.54184 8.45156 3.41407 8.46823 3.28073 8.4349C3.1474 8.40156 3.0474 8.32378 2.98073 8.20156L2.66407 7.6349ZM7.9974 7.6349L7.68073 8.20156C7.61407 8.32378 7.51407 8.40156 7.38073 8.4349C7.2474 8.46823 7.11962 8.45156 6.9974 8.3849C6.87518 8.31823 6.7974 8.21823 6.76407 8.0849C6.73073 7.95156 6.7474 7.82378 6.81407 7.70156L7.13073 7.1349H6.4974C6.35295 7.1349 6.23362 7.08778 6.1394 6.99356C6.04518 6.89934 5.99784 6.77978 5.9974 6.6349C5.99695 6.49001 6.04429 6.37067 6.1394 6.2769C6.23451 6.18312 6.35384 6.13578 6.4974 6.1349H7.13073L6.81407 5.60156C6.7474 5.47934 6.73073 5.35156 6.76407 5.21823C6.7974 5.0849 6.87518 4.9849 6.9974 4.91823C7.11962 4.85156 7.2474 4.8349 7.38073 4.86823C7.51407 4.90156 7.61407 4.97934 7.68073 5.10156L7.9974 5.6349L8.31407 5.10156C8.38073 4.97934 8.48073 4.90156 8.61407 4.86823C8.7474 4.8349 8.87518 4.85156 8.9974 4.91823C9.11962 4.9849 9.1974 5.0849 9.23073 5.21823C9.26407 5.35156 9.2474 5.47934 9.18073 5.60156L8.86407 6.1349H9.4974C9.64184 6.1349 9.76118 6.18223 9.8554 6.2769C9.94962 6.37156 9.99695 6.4909 9.9974 6.6349C9.99784 6.7789 9.95051 6.89845 9.8554 6.99356C9.76029 7.08867 9.64095 7.13578 9.4974 7.1349H8.86407L9.18073 7.70156C9.2474 7.82378 9.26407 7.95156 9.23073 8.0849C9.1974 8.21823 9.11962 8.31823 8.9974 8.3849C8.87518 8.45156 8.7474 8.46823 8.61407 8.4349C8.48073 8.40156 8.38073 8.32378 8.31407 8.20156L7.9974 7.6349ZM13.3307 7.6349L13.0141 8.20156C12.9474 8.32378 12.8474 8.40156 12.7141 8.4349C12.5807 8.46823 12.453 8.45156 12.3307 8.3849C12.2085 8.31823 12.1307 8.21823 12.0974 8.0849C12.0641 7.95156 12.0807 7.82378 12.1474 7.70156L12.4641 7.1349H11.8307C11.6863 7.1349 11.567 7.08778 11.4727 6.99356C11.3785 6.89934 11.3312 6.77978 11.3307 6.6349C11.3303 6.49001 11.3776 6.37067 11.4727 6.2769C11.5678 6.18312 11.6872 6.13578 11.8307 6.1349H12.4641L12.1474 5.60156C12.0807 5.47934 12.0641 5.35156 12.0974 5.21823C12.1307 5.0849 12.2085 4.9849 12.3307 4.91823C12.453 4.85156 12.5807 4.8349 12.7141 4.86823C12.8474 4.90156 12.9474 4.97934 13.0141 5.10156L13.3307 5.6349L13.6474 5.10156C13.7141 4.97934 13.8141 4.90156 13.9474 4.86823C14.0807 4.8349 14.2085 4.85156 14.3307 4.91823C14.453 4.9849 14.5307 5.0849 14.5641 5.21823C14.5974 5.35156 14.5807 5.47934 14.5141 5.60156L14.1974 6.1349H14.8307C14.9752 6.1349 15.0947 6.18223 15.1894 6.2769C15.2841 6.37156 15.3312 6.4909 15.3307 6.6349C15.3303 6.7789 15.283 6.89845 15.1887 6.99356C15.0945 7.08867 14.9752 7.13578 14.8307 7.1349H14.1974L14.5141 7.70156C14.5807 7.82378 14.5974 7.95156 14.5641 8.0849C14.5307 8.21823 14.453 8.31823 14.3307 8.3849C14.2085 8.45156 14.0807 8.46823 13.9474 8.4349C13.8141 8.40156 13.7141 8.32378 13.6474 8.20156L13.3307 7.6349Z" fill="#8181A5"/>
</svg>
